# xmcd CD database file
# Copyright (C) 1993-1996 Ti Kan
#
# Track frame offsets:
# 182
# 12192
# 24930
# 38485
# 47747
# 58565
# 74517
# 86547
# 101332
# 113922
# 125632
# 138727
# 147340
# 163520
# 177900
# 189692
#
# Disc length: 2702 seconds
# Revision: 0
# Processed by: cddbd v1.4b41PL1 Copyright (c) Steve Scherf et al.
# Submitted via: CDSpectrumPro v3.2.327
#
DISCID=da0a8c10
DTITLE=Patti Labelle And The Blue Belles - The Early Hits
DYEAR=1900
DGENRE=
TTITLE0=I Sold My Heart To The Junkman
TTITLE1=One Phone Call ( Will Do )
TTITLE2=Have I Sinned
TTITLE3=Acadamy Award
TTITLE4=Decatur Street
TTITLE5=Down The Aisle
TTITLE6=Tear After Tear
TTITLE7=What Kind Of Heart
TTITLE8=Danny Boy
TTITLE9=I Believe
TTITLE10=I Walked Right In
TTITLE11=Itty Bitty Twist
TTITLE12=When Johnny Comes Marching Home
TTITLE13=You'll Never Walk Alone
TTITLE14=The Joke's On You
TTITLE15=You Will Fill My Eyes No More
EXTD=
EXTT0=
EXTT1=
EXTT2=
EXTT3=
EXTT4=
EXTT5=
EXTT6=
EXTT7=
EXTT8=
EXTT9=
EXTT10=
EXTT11=
EXTT12=
EXTT13=
EXTT14=
EXTT15=
PLAYORDER=
